<?xml version="1.0" standalone="no"?>
<svg viewBox="0 0 200 200" xmlns="http://www.w3.org/2000/svg">
  <path fill="#606C5D" d="M38.3,-53.1C49.6,-52.4,58.6,-41.6,60.5,-29.9C62.3,-18.1,57,-5.3,52.5,5.7C48.1,16.7,44.4,26,38.9,35.3C33.3,44.6,26,54,15.2,61.6C4.5,69.2,-9.6,75,-17.6,68.7C-25.6,62.4,-27.4,43.9,-35.8,32.2C-44.1,20.5,-59,15.5,-65.9,5.9C-72.9,-3.7,-71.9,-18.1,-64.6,-27.6C-57.3,-37.2,-43.7,-42,-31.9,-42.4C-20,-42.8,-10,-38.8,1.8,-41.6C13.5,-44.3,27.1,-53.7,38.3,-53.1Z" transform="translate(100 100)" />
</svg>
